<?xml version="1.0" standalone="no"?>
<!DOCTYPE svg PUBLIC "-//W3C//DTD SVG 1.1//EN" "http://www.w3.org/Graphics/SVG/1.1/DTD/svg11.dtd"><svg t="1713758450832"
  class="icon" viewBox="0 0 1047 1024" version="1.1" xmlns="http://www.w3.org/2000/svg" p-id="4463"
  xmlns:xlink="http://www.w3.org/1999/xlink" width="204.4921875" height="200">
  <path
    d="M624.764761 785.994377q-6.717901-43.186504-19.194002-83.014058t-29.750703-79.175258l80.614808 0q18.234302 43.186504 31.190253 83.493908t22.552952 78.695408l-85.413308 0zM-3.8388 1015.362699q94.050609-204.41612 125.720712-453.938144l76.776007 0q-9.597001 126.680412-35.988754 239.445173t-72.457357 214.492971l-94.050609 0zM103.64761 242.804124q-13.435801-54.702905-35.988754-108.925961t-53.263355-110.845361l85.413308 0q48.944705 80.614808 89.252109 219.771321l-85.413308 0zM108.446111 291.748828q47.985005 78.695408 90.211809 220.731022l-85.413308 0q-27.831303-110.365511-90.211809-220.731022l85.413308 0zM431.865042 152.592315q-61.420806 66.219306-197.698219 108.446111l0-54.702905q143.955014-66.219306 192.899719-206.33552l94.050609 0q-8.637301 27.831303-19.673852 50.864105t-24.472352 43.186504l543.190253 0 0 58.541706-588.296157 0zM939.546392 534.552952l102.68791 0 0 62.380506-102.68791 0 0 211.134021 71.017807 0 0 63.340206-71.017807 0 0 22.073102q0 130.519213-148.753515 130.519213l-117.083411 0 0-53.743205 103.64761 0q76.776007 0 76.776007-76.776007l0-22.073102-377.162137 0q-152.592315 4.7985-148.753515-139.156514l0-135.317713-85.413308 0 0-62.380506 85.413308 0 0-269.675726 611.32896 0 0 269.675726zM854.133083 596.933458l-440.502343 0 0 121.881912q-4.7985 95.010309 90.211809 89.252109l350.290534 0 0-211.134021zM854.133083 323.418932l-440.502343 0 0 211.134021 440.502343 0 0-211.134021zM616.12746 512.47985q-2.8791-27.831303-13.915651-66.699157t-31.190253-90.691659l75.816307 0q40.307404 68.138707 54.702905 157.390815l-85.413308 0z"
    p-id="4464" fill="#3451b2"></path>
</svg>